<?xml version="1.0" encoding="utf-8"?>
<!-- Svg Vector Icons : http://www.onlinewebfonts.com/icon -->
<!DOCTYPE svg PUBLIC "-//W3C//DTD SVG 1.1//EN" "http://www.w3.org/Graphics/SVG/1.1/DTD/svg11.dtd">
<svg version="1.1" xmlns="http://www.w3.org/2000/svg" xmlns:xlink="http://www.w3.org/1999/xlink" x="0px" y="0px" viewBox="0 0 256 256" enable-background="new 0 0 256 256" xml:space="preserve">
<metadata> Svg Vector Icons : http://www.onlinewebfonts.com/icon </metadata>
<g><g><g><path fill="#000000" d="M54.7,10.8c-7,1.8-12.4,6.1-14.4,11.4l-1,2.5l0.1,104.2l0.1,104.2l1.3,2.4c2.4,4.4,6.6,7.5,12.7,9.6c1.9,0.6,3.9,0.9,7.8,0.9c5.7,0,9.1-0.8,13.2-3.1c3.1-1.8,136-103.2,137.9-105.1c4.8-5.3,5.3-12.6,1.1-18c-1.1-1.4-22.5-18-69.4-53.7C107.1,37.6,75.5,13.7,74.2,13C68.7,10,61.1,9.2,54.7,10.8z"/></g></g></g>
</svg>